
		<svg xmlns="http://www.w3.org/2000/svg" xmlns:xlink="http://www.w3.org/1999/xlink" version="1.1" width="3218.978102189781" height="1357.6642335766423">
			<rect fill="#20585a" width="3218.978102189781" height="1357.6642335766423"/>
			<g transform="scale(10.94890510948905) translate(10, 10)">
				<defs id="SvgjsDefs1191"/><g id="main_text" rel="mainfill" name="main_text" feature="main_text" xmlns:name="mainText_mainfill" groupName="main_text" fill="#ffffff" transform="translate(117.08799989731588, 16.59200398804625) scale(2.199999530979947)"><path d="M4.86 20.2 l-3.96 -8.38 l-0.94 0 l0 -0.96 l5.92 0 l0 0.96 l-1.24 0 l1.96 4.1 l1.9 -4.1 l-1.14 0 l0 -0.96 l3.34 0 l0 0.96 l-0.96 0 l-3.84 8.38 l-1.04 0 z M11.16 15.6 c0 -3.86 2.5 -5.02 4.34 -5.02 c1.3 0 2.02 0.6 2.36 1.24 l0.04 0 s-0.12 -0.86 -0.12 -1.74 l0 -3.48 l-1.48 0 l0 -0.96 l5.06 0 l0 13.4 l1.28 0 l0 0.96 l-4.4 0 l-0.12 -1.38 l-0.04 0 c-0.12 0.34 -0.74 1.66 -2.96 1.66 c-2.66 0 -3.96 -1.9 -3.96 -4.68 z M16.14 18.86 c0.82 0 1.72 -1.22 1.72 -3.46 c0 -2.1 -0.8 -3.4 -1.62 -3.4 c-0.72 0 -1.38 0.96 -1.38 3.58 c0 2.64 0.68 3.28 1.28 3.28 z M23.46 20.18 c0 0 0.12 -1.04 0.12 -1.9 l0 -1.54 l1.12 0 l0 0.32 c0 0.82 0.84 2.18 2.72 2.18 c0.94 0 1.4 -0.38 1.4 -0.94 c0 -1.9 -5.32 -0.74 -5.32 -4.48 c0 -1.96 1.54 -3.24 4.12 -3.24 c1.06 0 1.84 0.16 2.66 0.86 l0.2 -0.76 l0.98 0 s-0.26 1.38 -0.26 1.9 l0 1.08 l-1.1 0 l0 -0.2 c0 -0.78 -0.8 -1.84 -2.28 -1.84 c-0.74 0 -1.3 0.26 -1.3 0.9 c0 2.08 5.36 0.76 5.36 4.48 c0 2.26 -1.86 3.28 -4.22 3.28 c-1.5 0 -2.36 -0.44 -3 -1 l-0.18 0.9 l-1.02 0 z M32.58 20 l0 -0.96 l1.28 0 l0 -12.44 l-1.46 0 l0 -0.96 l5.06 0 l0 13.4 l1.28 0 l0 0.96 l-6.16 0 z M39.28 17.9 c0 -2.28 2.68 -3.06 5.4 -3.06 l0 -1.6 c0 -1.34 -0.36 -1.78 -1.1 -1.78 c-0.86 0 -1.16 0.5 -1.16 1.58 c0 0.46 0.02 0.8 0.08 1.18 c-2.14 0.16 -2.8 -0.64 -2.8 -1.56 c0 -1.2 1.2 -2.08 4.26 -2.08 c2.98 0 4.32 0.84 4.32 3.02 l0 4.64 c0 0.34 0.08 0.44 0.28 0.44 c0.28 0 0.4 -0.2 0.72 -1.28 l1.04 0.24 c-0.52 2.26 -1.7 2.56 -2.64 2.56 c-1.3 0 -2.02 -0.56 -2.44 -1.6 l-0.04 0 c-0.6 0.94 -1.36 1.68 -2.96 1.68 c-1.68 0 -2.96 -0.82 -2.96 -2.38 z M42.68 17.6 c0 0.84 0.3 1.1 0.76 1.1 c0.56 0 1.24 -0.58 1.24 -1.62 l0 -1.14 c-1.48 0 -2 0.64 -2 1.66 z M51.160000000000004 20.14 l0 -13.54 l-1.32 0 l0 -0.96 l4.92 0 l0 4.9 c0 0.92 -0.14 1.5 -0.14 1.5 l0.04 0 c0.4 -0.74 1.2 -1.46 2.72 -1.46 c2.32 0 3.9 1.68 3.9 4.6 c0 3.6 -2.42 5.1 -4.44 5.1 c-2.36 0 -2.94 -1.9 -2.94 -1.9 l-1.66 1.76 l-1.08 0 z M54.68 15.6 c0 2.08 0.82 3.26 1.54 3.26 s1.34 -0.9 1.34 -3.56 c0 -2.46 -0.54 -3.3 -1.14 -3.3 c-0.7 0 -1.74 1.34 -1.74 3.6 z"/></g><g id="slogan_text" rel="mainfill" name="slogan_text" feature="slogan_text" xmlns:name="sloganText_mainfill" groupName="slogan_text" fill="#ffffff" transform="translate(115.29999995231628, 75.55999946594238) scale(1)"><path d="M1.7 20 l0 -13.84 l1.54 0 l0 13.84 l-1.54 0 z M7.859999999999999 20 l-1.5 0 l0 -10 l1.48 0 l0 0.7 s1.62 -0.9 3.1 -0.9 c2.76 0 3.38 1.36 3.38 4.92 l0 5.28 l-1.48 0 l0 -5.24 c0 -2.64 -0.3 -3.62 -2.16 -3.62 c-1.44 0 -2.82 0.74 -2.82 0.74 l0 8.12 z M23.78 10.18 l-0.04 1.28 s-2.22 -0.32 -3.5 -0.32 c-1.24 0 -2.18 0.34 -2.18 1.52 c0 0.94 0.48 1.2 2.6 1.56 c2.5 0.42 3.44 0.92 3.44 2.86 c0 2.34 -1.48 3.12 -3.88 3.12 c-1.28 0 -3.52 -0.38 -3.52 -0.38 l0.08 -1.3 s2.28 0.34 3.3 0.34 c1.64 0 2.52 -0.36 2.52 -1.72 c0 -1.04 -0.52 -1.3 -2.7 -1.64 c-2.26 -0.36 -3.34 -0.78 -3.34 -2.78 c0 -2.2 1.78 -2.92 3.6 -2.92 c1.5 0 3.62 0.38 3.62 0.38 z M26.400000000000002 20 l0 -10 l1.5 0 l0 10 l-1.5 0 z M26.400000000000002 7.74 l0 -1.74 l1.5 0 l0 1.74 l-1.5 0 z M34.64 24.7 c-3.16 0 -4.3 -0.7 -4.3 -3.02 c0 -1.16 0.54 -1.7 1.58 -2.48 c-0.36 -0.24 -0.56 -0.76 -0.56 -1.38 c0 -0.38 0.68 -1.58 0.68 -1.58 c-0.84 -0.38 -1.58 -1.18 -1.58 -3.02 c0 -2.46 1.52 -3.42 3.74 -3.42 c1 0 2.08 0.26 2.08 0.26 l2.96 -0.08 l0 1.28 l-1.9 -0.04 c0.38 0.38 0.66 0.94 0.66 2 c0 2.6 -1.3 3.38 -3.86 3.38 c-0.2 0 -0.76 -0.04 -0.98 -0.08 c0 0 -0.36 0.88 -0.36 1.14 c0 0.8 0.16 0.92 2.42 0.92 c2.84 0 3.86 0.56 3.86 2.94 c0 2.26 -1.62 3.18 -4.44 3.18 z M35.1 19.9 c-0.7 0 -2.16 -0.1 -2.16 -0.1 c-0.84 0.62 -1.12 0.98 -1.12 1.76 c0 1.38 0.58 1.88 2.84 1.88 c2 0 2.9 -0.54 2.9 -1.86 c0 -1.52 -0.64 -1.68 -2.46 -1.68 z M34.2 15.4 c1.68 0 2.3 -0.6 2.3 -2.18 s-0.62 -2.2 -2.3 -2.2 c-1.56 0 -2.24 0.62 -2.24 2.2 s0.68 2.18 2.24 2.18 z M42.559999999999995 20 l-1.5 0 l0 -14.36 l1.5 0 l0 4.92 s1.6 -0.76 3.08 -0.76 c2.74 0 3.38 1.36 3.38 4.92 l0 5.28 l-1.5 0 l0 -5.24 c0 -2.64 -0.3 -3.62 -2.14 -3.62 c-1.42 0 -2.82 0.6 -2.82 0.6 l0 8.26 z M56.98 11.3 l-3.18 0 l0 4.78 c0 2.18 0.14 2.8 1.44 2.8 c0.56 0 1.78 -0.12 1.78 -0.12 l0.1 1.24 s-1.34 0.22 -2.04 0.22 c-2.06 0 -2.76 -0.78 -2.76 -3.66 l0 -5.26 l-1.42 0 l0 -1.3 l1.42 0 l0 -3.06 l1.48 0 l0 3.06 l3.18 0 l0 1.3 z M60.74 11.3 l0 8.7 l-1.5 0 l0 -8.7 l-1.26 0 l0 -1.3 l1.26 0 l0 -0.9 c0 -2.88 0.74 -3.66 2.7 -3.66 c0.68 0 2.02 0.14 2.02 0.14 l-0.02 1.24 s-1.12 -0.04 -1.72 -0.04 c-1.12 0 -1.48 0.48 -1.48 2.34 l0 0.88 l2.9 0 l0 1.3 l-2.9 0 z M71.68 10 l1.5 0 l0 10 l-1.5 0 l0 -0.7 s-1.5 0.9 -2.96 0.9 c-2.8 0 -3.38 -1.3 -3.38 -4.98 l0 -5.22 l1.5 0 l0 5.2 c0 2.76 0.24 3.66 2.1 3.66 c1.48 0 2.74 -0.74 2.74 -0.74 l0 -8.12 z M76.18 20 l0 -14.36 l1.5 0 l0 14.36 l-1.5 0 z  M84.12000000000002 20 l3.8 -13.84 l3.36 0 l3.8 13.84 l-1.52 0 l-1 -3.56 l-5.92 0 l-1 3.56 l-1.52 0 z M89.08000000000001 7.48 l-2.1 7.58 l5.24 0 l-2.1 -7.58 l-1.04 0 z M98.50000000000001 20 l-1.5 0 l0 -10 l1.48 0 l0 0.7 s1.62 -0.9 3.1 -0.9 c2.76 0 3.38 1.36 3.38 4.92 l0 5.28 l-1.48 0 l0 -5.24 c0 -2.64 -0.3 -3.62 -2.16 -3.62 c-1.44 0 -2.82 0.74 -2.82 0.74 l0 8.12 z M114.80000000000001 13.02 l0 5.12 c0.04 0.58 0.52 0.8 1.16 0.88 l-0.06 1.18 c-1.06 0 -1.78 -0.2 -2.38 -0.8 c0 0 -1.8 0.8 -3.6 0.8 c-1.82 0 -2.82 -1.04 -2.82 -3.06 c0 -1.92 1 -2.76 3.06 -2.96 l3.14 -0.3 l0 -0.86 c0 -1.4 -0.6 -1.9 -1.8 -1.9 c-1.4 0 -3.78 0.26 -3.78 0.26 l-0.06 -1.14 s2.2 -0.44 3.92 -0.44 c2.26 0 3.22 1.04 3.22 3.22 z M113.30000000000001 15.02 l-2.96 0.28 c-1.22 0.12 -1.7 0.7 -1.7 1.8 c0 1.16 0.5 1.84 1.52 1.84 c1.48 0 3.14 -0.62 3.14 -0.62 l0 -3.3 z M117.88000000000001 20 l0 -14.36 l1.5 0 l0 14.36 l-1.5 0 z M121.44000000000001 10 l1.5 0 l2.5 8.7 l0.66 0 l2.52 -8.7 l1.5 0 l-4.16 14.44 l-1.5 0 l1.3 -4.44 l-1.48 0 z M137.22000000000003 11.3 l-3.18 0 l0 4.78 c0 2.18 0.14 2.8 1.44 2.8 c0.56 0 1.78 -0.12 1.78 -0.12 l0.1 1.24 s-1.34 0.22 -2.04 0.22 c-2.06 0 -2.76 -0.78 -2.76 -3.66 l0 -5.26 l-1.42 0 l0 -1.3 l1.42 0 l0 -3.06 l1.48 0 l0 3.06 l3.18 0 l0 1.3 z M139.06000000000003 20 l0 -10 l1.5 0 l0 10 l-1.5 0 z M139.06000000000003 7.74 l0 -1.74 l1.5 0 l0 1.74 l-1.5 0 z M147.18000000000004 9.8 c0.92 0 2.72 0.3 2.72 0.3 l-0.06 1.22 s-1.6 -0.18 -2.36 -0.18 c-2.3 0 -2.92 1 -2.92 3.68 c0 2.96 0.46 4.04 2.94 4.04 c0.76 0 2.36 -0.18 2.36 -0.18 l0.06 1.24 s-1.86 0.28 -2.78 0.28 c-3.18 0 -4.12 -1.46 -4.12 -5.38 c0 -3.62 1.18 -5.02 4.16 -5.02 z M158.84000000000003 10.18 l-0.04 1.28 s-2.22 -0.32 -3.5 -0.32 c-1.24 0 -2.18 0.34 -2.18 1.52 c0 0.94 0.48 1.2 2.6 1.56 c2.5 0.42 3.44 0.92 3.44 2.86 c0 2.34 -1.48 3.12 -3.88 3.12 c-1.28 0 -3.52 -0.38 -3.52 -0.38 l0.08 -1.3 s2.28 0.34 3.3 0.34 c1.64 0 2.52 -0.36 2.52 -1.72 c0 -1.04 -0.52 -1.3 -2.7 -1.64 c-2.26 -0.36 -3.34 -0.78 -3.34 -2.78 c0 -2.2 1.78 -2.92 3.6 -2.92 c1.5 0 3.62 0.38 3.62 0.38 z"/></g><g id="SvgjsG1201" rel="mainfill" name="symbol" feature="symbol" xmlns:name="symbol_mainfill" fill="#ffffff" transform="translate(8.017200956771488, 9.229800939093957) scale(1.0088189026424927)"><path xmlns="http://www.w3.org/2000/svg" d="M91.167,73.764c-0.189-0.259-0.862-0.947-5.235-2.171l-6.578-6.579l2.934-1.361l9.076-0.155  c0.815-0.014,1.466-0.687,1.452-1.502c-0.014-0.816-0.698-1.505-1.503-1.452c0,0-9.798,0.211-9.985,0.298l-4.198,1.948l-0.989-0.989  c8.41-14.26,6.497-32.969-5.739-45.204c-14.502-14.503-38.101-14.503-52.603,0c-14.503,14.502-14.503,38.101,0,52.603  c7.702,7.703,17.969,11.311,28.077,10.832c-0.111,0.595-0.143,1.25-0.069,1.956c0.166,1.605,0.87,3.385,2.093,4.563  c-3.4,1.24-3.555,1.778-3.416,2.775c0.225,1.61,1.09,2.931,2.438,3.721c0.235,0.138,0.491,0.203,0.745,0.203  c0.507,0,1.001-0.262,1.276-0.73c0.413-0.704-1.065-2.43-1.235-2.716c1.071-0.438,2.968-1.096,4.669-1.638  c0.915,0.09,5.307,0.042,5.84-0.003c2.802,2.398,7.727,4.643,11.082,6.009c0.182,0.074,0.371,0.109,0.556,0.109  c0.583,0,1.135-0.347,1.368-0.92c0.308-0.755-0.055-1.617-0.811-1.925c-1.531-0.623-3.027-1.303-4.41-1.987l3.475-6.628  c0.068-0.13,0.075-0.284,0.018-0.418c-0.056-0.136-0.17-0.238-0.31-0.282c-0.401-0.122-3.964-1.184-5.651-0.708  c-1.866,0.527-3.864,2.17-4.22,3.817c-0.162-0.187-0.742-1.288,0.448-2.724c1.656-1.999,5.691-2.665,6.722-2.571  c3.044,0.229,11.299,3.151,14.222,4.258c0.037,0.014,0.074,0.027,0.111,0.038c2.796,0.812,9.513,2.395,11.495-0.48  C92.926,82.856,93.531,77,91.167,73.764z M16.228,24.755h50.46v35.886h-50.71C9.079,49.71,9.159,35.609,16.228,24.755z   M30.567,67.186h13.852c0.018,0.033,1.261,1.801,1.261,1.801H29.31C29.31,68.987,30.554,67.207,30.567,67.186z M44.286,66.201  H30.713v-3.59h13.573V66.201z M20.583,66.415c-1.202-1.202-2.292-2.475-3.271-3.804h11.431v3.763l-2.138,3.03  c-0.212,0.3-0.239,0.694-0.07,1.02c0.169,0.327,0.506,0.532,0.874,0.532h20.179c0.369,0,0.706-0.206,0.875-0.534  c0.169-0.327,0.141-0.721-0.073-1.022l-2.136-3v-3.789h21.417c0.544,0,0.985-0.44,0.985-0.985V23.771  c0-0.544-0.441-0.985-0.985-0.985H17.622c0.9-1.183,1.882-2.324,2.961-3.404c6.484-6.483,15-9.725,23.517-9.725  s17.033,3.242,23.517,9.725c12.967,12.968,12.967,34.066,0,47.033C54.649,79.382,33.551,79.382,20.583,66.415z M63.799,82.36  c1.014-0.288,3.25,0.197,4.523,0.539l-3.201,6.106c-2.057-1.059-3.785-2.101-4.877-2.94C60.04,84.078,62.915,82.61,63.799,82.36z   M58.018,80.135c-1.357,1.311-2.32,3.642-1.879,5.186c-1.805,0.053-4.142-0.008-5.57-0.484c-0.837-0.279-1.594-1.518-1.8-2.947  c-0.164-1.14,0.105-1.834,0.242-1.929c5.005-0.697,8.411-1.6,13.992-5.022l2.115,2.12C63.026,77.319,59.999,78.221,58.018,80.135z   M81.694,81.408c-0.679-0.256-6.085-2.276-10.548-3.501c-0.086-0.324-4.8-5.194-4.8-5.194c1.415-1.057,2.771-2.228,4.056-3.513  c1.285-1.284,2.456-2.64,3.512-4.054c0,0,16.066,16.764,15.964,16.926C89.384,82.701,85.63,82.543,81.694,81.408z M16.321,50.412  c1.539,0,2.79-1.252,2.79-2.791c0-0.909-0.443-1.71-1.118-2.22l3.637-7.123c0.269,0.086,0.549,0.145,0.846,0.145  c0.339,0,0.66-0.07,0.961-0.181l7.049,12.008c-0.502,0.505-0.813,1.199-0.813,1.966c0,1.539,1.252,2.79,2.79,2.79  c1.539,0,2.79-1.251,2.79-2.79c0-0.707-0.273-1.347-0.708-1.839l3.827-5.702c0.337,0.145,0.708,0.227,1.098,0.227  c0.623,0,1.193-0.212,1.658-0.558l1.692,1.55c-0.184,0.372-0.297,0.785-0.297,1.228c0,1.539,1.252,2.79,2.79,2.79  s2.79-1.251,2.79-2.79c0-0.837-0.378-1.58-0.963-2.092l2.074-3.774c0.246,0.071,0.501,0.122,0.77,0.122  c1.539,0,2.79-1.251,2.79-2.79c0-0.395-0.085-0.77-0.234-1.111l7.341-5.688c0.495,0.446,1.143,0.726,1.86,0.726  c1.539,0,2.79-1.252,2.79-2.791c0-1.539-1.252-2.79-2.79-2.79c-1.538,0-2.79,1.251-2.79,2.79c0,0.465,0.125,0.898,0.328,1.284  l-7.29,5.648c-0.508-0.527-1.217-0.859-2.006-0.859c-1.538,0-2.79,1.251-2.79,2.79c0,0.917,0.45,1.725,1.135,2.233l-2.033,3.698  c-0.307-0.117-0.636-0.188-0.984-0.188c-0.738,0-1.406,0.293-1.906,0.763l-1.601-1.466c0.285-0.437,0.454-0.957,0.454-1.516  c0-1.539-1.252-2.79-2.79-2.79c-1.538,0-2.79,1.251-2.79,2.79c0,0.795,0.338,1.509,0.873,2.017l-3.784,5.637  c-0.392-0.21-0.832-0.34-1.307-0.34c-0.417,0-0.809,0.098-1.165,0.263l-7.014-11.949c0.596-0.512,0.982-1.262,0.982-2.108  c0-1.539-1.252-2.79-2.79-2.79c-1.538,0-2.79,1.251-2.79,2.79c0,0.888,0.425,1.672,1.074,2.183l-3.647,7.143  c-0.253-0.075-0.515-0.128-0.791-0.128c-1.538,0-2.79,1.251-2.79,2.79S14.783,50.412,16.321,50.412z M61.741,27.92  c0.996,0,1.805,0.81,1.805,1.805c0,0.996-0.81,1.806-1.805,1.806c-0.995,0-1.805-0.81-1.805-1.806  C59.936,28.73,60.746,27.92,61.741,27.92z M49.983,36.784c0.996,0,1.805,0.81,1.805,1.805s-0.81,1.805-1.805,1.805  c-0.995,0-1.805-0.81-1.805-1.805S48.988,36.784,49.983,36.784z M45.312,45.317c0.996,0,1.805,0.81,1.805,1.805  s-0.81,1.805-1.805,1.805s-1.805-0.81-1.805-1.805S44.316,45.317,45.312,45.317z M39.469,40.308c0.996,0,1.805,0.81,1.805,1.805  s-0.81,1.805-1.805,1.805c-0.995,0-1.805-0.81-1.805-1.805S38.474,40.308,39.469,40.308z M34.268,52.217  c0,0.995-0.81,1.805-1.805,1.805c-0.995,0-1.805-0.81-1.805-1.805c0-0.995,0.81-1.805,1.805-1.805  C33.458,50.412,34.268,51.222,34.268,52.217z M22.476,33.828c0.996,0,1.805,0.81,1.805,1.805c0,0.996-0.81,1.806-1.805,1.806  c-0.995,0-1.805-0.81-1.805-1.806C20.671,34.638,21.48,33.828,22.476,33.828z M16.321,45.816c0.996,0,1.805,0.81,1.805,1.805  c0,0.996-0.81,1.806-1.805,1.806c-0.995,0-1.805-0.81-1.805-1.806C14.516,46.626,15.326,45.816,16.321,45.816z"/></g>
			</g>
		</svg>
	